<?xml version="1.0" encoding="UTF-8" standalone="no"?>
<!DOCTYPE svg PUBLIC "-//W3C//DTD SVG 1.1//EN"
 "http://www.w3.org/Graphics/SVG/1.1/DTD/svg11.dtd">
<!-- Generated by graphviz version 2.44.0 ()
 -->
<!-- Title: model_graph Pages: 1 -->
<svg width="775pt" height="810pt"
 viewBox="0.00 0.00 775.00 810.00" xmlns="http://www.w3.org/2000/svg" xmlns:xlink="http://www.w3.org/1999/xlink">
<g id="graph0" class="graph" transform="scale(1 1) rotate(0) translate(4 806)">
<title>model_graph</title>
<polygon fill="white" stroke="transparent" points="-4,4 -4,-806 771,-806 771,4 -4,4"/>
<g id="clust1" class="cluster">
<title>cluster_core</title>
<path fill="none" stroke="#698b22" d="M20,-8C20,-8 567,-8 567,-8 573,-8 579,-14 579,-20 579,-20 579,-782 579,-782 579,-788 573,-794 567,-794 567,-794 20,-794 20,-794 14,-794 8,-788 8,-782 8,-782 8,-20 8,-20 8,-14 14,-8 20,-8"/>
<text text-anchor="start" x="236.5" y="-778.5" font-family="Roboto" font-size="8.00"> &#160;&#160;&#160;&#160;&#160;&#160;&#160;&#160;&#160;</text>
<text text-anchor="start" x="259.5" y="-778.5" font-family="Roboto" font-size="10.00"> &#160;&#160;&#160;&#160;&#160;&#160;&#160;&#160;&#160;</text>
<text text-anchor="start" x="282.5" y="-778.5" font-family="Roboto" font-weight="bold" font-size="10.00">core</text>
<text text-anchor="start" x="304.5" y="-778.5" font-family="Roboto" font-size="10.00"> &#160;&#160;&#160;&#160;&#160;&#160;&#160;&#160;&#160;</text>
<text text-anchor="start" x="327.5" y="-778.5" font-family="Roboto" font-size="8.00"> &#160;&#160;&#160;&#160;&#160;&#160;&#160;&#160;&#160;</text>
</g>
<!-- django_contrib_auth_models_PermissionsMixin -->
<g id="node1" class="node">
<title>django_contrib_auth_models_PermissionsMixin</title>
<polygon fill="white" stroke="transparent" points="175,-26.5 175,-62.5 333,-62.5 333,-26.5 175,-26.5"/>
<polygon fill="#1b563f" stroke="transparent" points="176,-40.5 176,-61.5 332,-61.5 332,-40.5 176,-40.5"/>
<text text-anchor="start" x="186" y="-49.5" font-family="Roboto" font-size="8.00"> &#160;&#160;&#160;&#160;&#160;</text>
<text text-anchor="start" x="200" y="-49.5" font-family="Roboto" font-weight="bold" font-size="10.00" fill="white"> &#160;&#160;&#160;&#160;&#160;PermissionsMixin &#160;&#160;&#160;&#160;&#160;</text>
<text text-anchor="start" x="178" y="-33.1" font-family="Roboto" font-size="8.00"> &#160;&#160;&#160;&#160;&#160;</text>
<text text-anchor="start" x="192" y="-33.1" font-family="Roboto" font-size="8.00">is_superuser</text>
<text text-anchor="start" x="238" y="-33.1" font-family="Roboto" font-size="8.00"> &#160;&#160;&#160;&#160;&#160;</text>
<text text-anchor="start" x="256" y="-33.1" font-family="Roboto" font-size="8.00"> &#160;&#160;&#160;&#160;&#160;</text>
<text text-anchor="start" x="270" y="-33.1" font-family="Roboto" font-size="8.00">BooleanField</text>
<text text-anchor="start" x="316" y="-33.1" font-family="Roboto" font-size="8.00"> &#160;&#160;&#160;&#160;&#160;</text>
<polygon fill="none" stroke="black" points="175,-26.5 175,-62.5 333,-62.5 333,-26.5 175,-26.5"/>
</g>
<!-- django_contrib_auth_base_user_AbstractBaseUser -->
<g id="node2" class="node">
<title>django_contrib_auth_base_user_AbstractBaseUser</title>
<polygon fill="white" stroke="transparent" points="367.5,-20 367.5,-69 520.5,-69 520.5,-20 367.5,-20"/>
<polygon fill="#1b563f" stroke="transparent" points="369,-46.5 369,-67.5 520,-67.5 520,-46.5 369,-46.5"/>
<text text-anchor="start" x="375.5" y="-55.5" font-family="Roboto" font-size="8.00"> &#160;&#160;&#160;&#160;&#160;</text>
<text text-anchor="start" x="389.5" y="-55.5" font-family="Roboto" font-weight="bold" font-size="10.00" fill="white"> &#160;&#160;&#160;&#160;&#160;AbstractBaseUser &#160;&#160;&#160;&#160;&#160;</text>
<text text-anchor="start" x="371" y="-39.1" font-family="Roboto" font-size="8.00"> &#160;&#160;&#160;&#160;&#160;</text>
<text text-anchor="start" x="385" y="-39.1" font-family="Roboto" font-size="8.00" fill="#7b7b7b">last_login</text>
<text text-anchor="start" x="419" y="-39.1" font-family="Roboto" font-size="8.00"> &#160;&#160;&#160;&#160;&#160;</text>
<text text-anchor="start" x="438" y="-39.1" font-family="Roboto" font-size="8.00"> &#160;&#160;&#160;&#160;&#160;</text>
<text text-anchor="start" x="452" y="-39.1" font-family="Roboto" font-size="8.00" fill="#7b7b7b">DateTimeField</text>
<text text-anchor="start" x="504" y="-39.1" font-family="Roboto" font-size="8.00"> &#160;&#160;&#160;&#160;&#160;</text>
<text text-anchor="start" x="371" y="-26.1" font-family="Roboto" font-size="8.00"> &#160;&#160;&#160;&#160;&#160;</text>
<text text-anchor="start" x="385" y="-26.1" font-family="Roboto" font-size="8.00">password</text>
<text text-anchor="start" x="420" y="-26.1" font-family="Roboto" font-size="8.00"> &#160;&#160;&#160;&#160;&#160;</text>
<text text-anchor="start" x="438" y="-26.1" font-family="Roboto" font-size="8.00"> &#160;&#160;&#160;&#160;&#160;</text>
<text text-anchor="start" x="452" y="-26.1" font-family="Roboto" font-size="8.00">CharField</text>
<text text-anchor="start" x="487" y="-26.1" font-family="Roboto" font-size="8.00"> &#160;&#160;&#160;&#160;&#160;</text>
<polygon fill="none" stroke="black" points="367.5,-20 367.5,-69 520.5,-69 520.5,-20 367.5,-20"/>
</g>
<!-- core_models_User -->
<g id="node3" class="node">
<title>core_models_User</title>
<polygon fill="white" stroke="transparent" points="282,-131 282,-267 498,-267 498,-131 282,-131"/>
<polygon fill="#1b563f" stroke="transparent" points="283,-236 283,-266 497,-266 497,-236 283,-236"/>
<text text-anchor="start" x="362.5" y="-254" font-family="Roboto" font-size="8.00"> &#160;&#160;&#160;&#160;&#160;</text>
<text text-anchor="start" x="376.5" y="-254" font-family="Roboto" font-weight="bold" font-size="10.00" fill="white"> &#160;&#160;&#160;&#160;&#160;User</text>
<text text-anchor="start" x="288" y="-244" font-family="Roboto" font-weight="bold" font-size="10.00" fill="white">&lt;</text>
<text text-anchor="start" x="295" y="-244" font-family="Roboto" font-weight="bold" font-style="italic" font-size="10.00" fill="white">AbstractBaseUser,PermissionsMixin</text>
<text text-anchor="start" x="467" y="-244" font-family="Roboto" font-weight="bold" font-size="10.00" fill="white">&gt; &#160;&#160;&#160;&#160;&#160;</text>
<text text-anchor="start" x="285" y="-228.6" font-family="Roboto" font-size="8.00"> &#160;&#160;&#160;&#160;&#160;</text>
<text text-anchor="start" x="299" y="-228.6" font-family="Roboto" font-weight="bold" font-size="8.00">id</text>
<text text-anchor="start" x="307" y="-228.6" font-family="Roboto" font-size="8.00"> &#160;&#160;&#160;&#160;&#160;</text>
<text text-anchor="start" x="388" y="-228.6" font-family="Roboto" font-size="8.00"> &#160;&#160;&#160;&#160;&#160;</text>
<text text-anchor="start" x="402" y="-228.6" font-family="Roboto" font-weight="bold" font-size="8.00">BigAutoField</text>
<text text-anchor="start" x="454" y="-228.6" font-family="Roboto" font-size="8.00"> &#160;&#160;&#160;&#160;&#160;</text>
<text text-anchor="start" x="285" y="-215.6" font-family="Roboto" font-size="8.00"> &#160;&#160;&#160;&#160;&#160;</text>
<text text-anchor="start" x="299" y="-215.6" font-family="Roboto" font-size="8.00">email</text>
<text text-anchor="start" x="318" y="-215.6" font-family="Roboto" font-size="8.00"> &#160;&#160;&#160;&#160;&#160;</text>
<text text-anchor="start" x="388" y="-215.6" font-family="Roboto" font-size="8.00"> &#160;&#160;&#160;&#160;&#160;</text>
<text text-anchor="start" x="402" y="-215.6" font-family="Roboto" font-size="8.00">EmailField</text>
<text text-anchor="start" x="439" y="-215.6" font-family="Roboto" font-size="8.00"> &#160;&#160;&#160;&#160;&#160;</text>
<text text-anchor="start" x="285" y="-202.6" font-family="Roboto" font-size="8.00"> &#160;&#160;&#160;&#160;&#160;</text>
<text text-anchor="start" x="299" y="-202.6" font-family="Roboto" font-size="8.00">is_active</text>
<text text-anchor="start" x="330" y="-202.6" font-family="Roboto" font-size="8.00"> &#160;&#160;&#160;&#160;&#160;</text>
<text text-anchor="start" x="388" y="-202.6" font-family="Roboto" font-size="8.00"> &#160;&#160;&#160;&#160;&#160;</text>
<text text-anchor="start" x="402" y="-202.6" font-family="Roboto" font-size="8.00">BooleanField</text>
<text text-anchor="start" x="448" y="-202.6" font-family="Roboto" font-size="8.00"> &#160;&#160;&#160;&#160;&#160;</text>
<text text-anchor="start" x="285" y="-189.6" font-family="Roboto" font-size="8.00"> &#160;&#160;&#160;&#160;&#160;</text>
<text text-anchor="start" x="299" y="-189.6" font-family="Roboto" font-size="8.00">is_staff</text>
<text text-anchor="start" x="324" y="-189.6" font-family="Roboto" font-size="8.00"> &#160;&#160;&#160;&#160;&#160;</text>
<text text-anchor="start" x="388" y="-189.6" font-family="Roboto" font-size="8.00"> &#160;&#160;&#160;&#160;&#160;</text>
<text text-anchor="start" x="402" y="-189.6" font-family="Roboto" font-size="8.00">BooleanField</text>
<text text-anchor="start" x="448" y="-189.6" font-family="Roboto" font-size="8.00"> &#160;&#160;&#160;&#160;&#160;</text>
<text text-anchor="start" x="285" y="-176.6" font-family="Roboto" font-size="8.00"> &#160;&#160;&#160;&#160;&#160;</text>
<text text-anchor="start" x="299" y="-176.6" font-family="Roboto" font-style="italic" font-size="8.00">is_superuser</text>
<text text-anchor="start" x="344" y="-176.6" font-family="Roboto" font-size="8.00"> &#160;&#160;&#160;&#160;&#160;</text>
<text text-anchor="start" x="388" y="-176.6" font-family="Roboto" font-size="8.00"> &#160;&#160;&#160;&#160;&#160;</text>
<text text-anchor="start" x="402" y="-176.6" font-family="Roboto" font-style="italic" font-size="8.00">BooleanField</text>
<text text-anchor="start" x="448" y="-176.6" font-family="Roboto" font-size="8.00"> &#160;&#160;&#160;&#160;&#160;</text>
<text text-anchor="start" x="285" y="-163.6" font-family="Roboto" font-size="8.00"> &#160;&#160;&#160;&#160;&#160;</text>
<text text-anchor="start" x="299" y="-163.6" font-family="Roboto" font-style="italic" font-size="8.00" fill="#7b7b7b">last_login</text>
<text text-anchor="start" x="333" y="-163.6" font-family="Roboto" font-size="8.00"> &#160;&#160;&#160;&#160;&#160;</text>
<text text-anchor="start" x="388" y="-163.6" font-family="Roboto" font-size="8.00"> &#160;&#160;&#160;&#160;&#160;</text>
<text text-anchor="start" x="402" y="-163.6" font-family="Roboto" font-style="italic" font-size="8.00" fill="#7b7b7b">DateTimeField</text>
<text text-anchor="start" x="454" y="-163.6" font-family="Roboto" font-size="8.00"> &#160;&#160;&#160;&#160;&#160;</text>
<text text-anchor="start" x="285" y="-150.6" font-family="Roboto" font-size="8.00"> &#160;&#160;&#160;&#160;&#160;</text>
<text text-anchor="start" x="299" y="-150.6" font-family="Roboto" font-size="8.00">name</text>
<text text-anchor="start" x="320" y="-150.6" font-family="Roboto" font-size="8.00"> &#160;&#160;&#160;&#160;&#160;</text>
<text text-anchor="start" x="388" y="-150.6" font-family="Roboto" font-size="8.00"> &#160;&#160;&#160;&#160;&#160;</text>
<text text-anchor="start" x="402" y="-150.6" font-family="Roboto" font-size="8.00">CharField</text>
<text text-anchor="start" x="437" y="-150.6" font-family="Roboto" font-size="8.00"> &#160;&#160;&#160;&#160;&#160;</text>
<text text-anchor="start" x="285" y="-137.6" font-family="Roboto" font-size="8.00"> &#160;&#160;&#160;&#160;&#160;</text>
<text text-anchor="start" x="299" y="-137.6" font-family="Roboto" font-style="italic" font-size="8.00">password</text>
<text text-anchor="start" x="333" y="-137.6" font-family="Roboto" font-size="8.00"> &#160;&#160;&#160;&#160;&#160;</text>
<text text-anchor="start" x="388" y="-137.6" font-family="Roboto" font-size="8.00"> &#160;&#160;&#160;&#160;&#160;</text>
<text text-anchor="start" x="402" y="-137.6" font-family="Roboto" font-style="italic" font-size="8.00">CharField</text>
<text text-anchor="start" x="436" y="-137.6" font-family="Roboto" font-size="8.00"> &#160;&#160;&#160;&#160;&#160;</text>
<polygon fill="none" stroke="black" points="282,-131 282,-267 498,-267 498,-131 282,-131"/>
</g>
<!-- core_models_User&#45;&gt;django_contrib_auth_models_PermissionsMixin -->
<g id="edge4" class="edge">
<title>core_models_User&#45;&gt;django_contrib_auth_models_PermissionsMixin</title>
<path fill="none" stroke="black" d="M326.38,-126.66C309.93,-108.22 293.14,-89.39 279.87,-74.51"/>
<polygon fill="none" stroke="black" points="282.16,-71.82 272.89,-66.69 276.94,-76.48 282.16,-71.82"/>
<text text-anchor="middle" x="329" y="-102.6" font-family="Roboto" font-size="8.00"> abstract</text>
<text text-anchor="middle" x="329" y="-93.6" font-family="Roboto" font-size="8.00">inheritance</text>
</g>
<!-- core_models_User&#45;&gt;django_contrib_auth_base_user_AbstractBaseUser -->
<g id="edge3" class="edge">
<title>core_models_User&#45;&gt;django_contrib_auth_base_user_AbstractBaseUser</title>
<path fill="none" stroke="black" d="M415.26,-126.66C420.64,-111.47 426.12,-96.01 430.82,-82.72"/>
<polygon fill="none" stroke="black" points="434.22,-83.61 434.26,-73.02 427.62,-81.27 434.22,-83.61"/>
<text text-anchor="middle" x="446" y="-102.6" font-family="Roboto" font-size="8.00"> abstract</text>
<text text-anchor="middle" x="446" y="-93.6" font-family="Roboto" font-size="8.00">inheritance</text>
</g>
<!-- django_contrib_auth_models_Group -->
<g id="node9" class="node">
<title>django_contrib_auth_models_Group</title>
<polygon fill="white" stroke="transparent" points="595,-34 595,-55 647,-55 647,-34 595,-34"/>
<polygon fill="#1b563f" stroke="transparent" points="595,-33.5 595,-54.5 647,-54.5 647,-33.5 595,-33.5"/>
<text text-anchor="start" x="599" y="-41.9" font-family="Roboto" font-size="8.00"> &#160;</text>
<text text-anchor="start" x="604" y="-41.9" font-family="Roboto" font-size="12.00" fill="white">Group</text>
<text text-anchor="start" x="638" y="-41.9" font-family="Roboto" font-size="8.00"> &#160;</text>
</g>
<!-- core_models_User&#45;&gt;django_contrib_auth_models_Group -->
<g id="edge1" class="edge">
<title>core_models_User&#45;&gt;django_contrib_auth_models_Group</title>
<path fill="none" stroke="black" d="M508.82,-122.42C533.5,-106.34 559.22,-89.29 583,-73 585.57,-71.24 588.22,-69.39 590.87,-67.52"/>
<ellipse fill="black" stroke="black" cx="505.24" cy="-124.74" rx="4" ry="4"/>
<ellipse fill="black" stroke="black" cx="594.57" cy="-64.88" rx="4" ry="4"/>
<text text-anchor="middle" x="577" y="-98.1" font-family="Roboto" font-size="8.00"> groups (user)</text>
</g>
<!-- django_contrib_auth_models_Permission -->
<g id="node10" class="node">
<title>django_contrib_auth_models_Permission</title>
<polygon fill="white" stroke="transparent" points="681,-34 681,-55 759,-55 759,-34 681,-34"/>
<polygon fill="#1b563f" stroke="transparent" points="681,-33.5 681,-54.5 759,-54.5 759,-33.5 681,-33.5"/>
<text text-anchor="start" x="685" y="-41.9" font-family="Roboto" font-size="8.00"> &#160;</text>
<text text-anchor="start" x="690" y="-41.9" font-family="Roboto" font-size="12.00" fill="white">Permission</text>
<text text-anchor="start" x="750" y="-41.9" font-family="Roboto" font-size="8.00"> &#160;</text>
</g>
<!-- core_models_User&#45;&gt;django_contrib_auth_models_Permission -->
<g id="edge2" class="edge">
<title>core_models_User&#45;&gt;django_contrib_auth_models_Permission</title>
<path fill="none" stroke="black" d="M513.81,-150.29C544.58,-137.59 577.26,-123.39 607,-109 633.57,-96.14 662.58,-79.79 684.55,-66.9"/>
<ellipse fill="black" stroke="black" cx="509.73" cy="-151.96" rx="4" ry="4"/>
<ellipse fill="black" stroke="black" cx="688.28" cy="-64.7" rx="4" ry="4"/>
<text text-anchor="middle" x="685.5" y="-98.1" font-family="Roboto" font-size="8.00"> user_permissions (user)</text>
</g>
<!-- core_models_Workout -->
<g id="node4" class="node">
<title>core_models_Workout</title>
<polygon fill="white" stroke="transparent" points="28,-474 28,-562 218,-562 218,-474 28,-474"/>
<polygon fill="#1b563f" stroke="transparent" points="29,-540 29,-561 217,-561 217,-540 29,-540"/>
<text text-anchor="start" x="77" y="-549" font-family="Roboto" font-size="8.00"> &#160;&#160;&#160;&#160;&#160;</text>
<text text-anchor="start" x="91" y="-549" font-family="Roboto" font-weight="bold" font-size="10.00" fill="white"> &#160;&#160;&#160;&#160;&#160;Workout &#160;&#160;&#160;&#160;&#160;</text>
<text text-anchor="start" x="31" y="-532.6" font-family="Roboto" font-size="8.00"> &#160;&#160;&#160;&#160;&#160;</text>
<text text-anchor="start" x="45" y="-532.6" font-family="Roboto" font-weight="bold" font-size="8.00">id</text>
<text text-anchor="start" x="53" y="-532.6" font-family="Roboto" font-size="8.00"> &#160;&#160;&#160;&#160;&#160;</text>
<text text-anchor="start" x="125" y="-532.6" font-family="Roboto" font-size="8.00"> &#160;&#160;&#160;&#160;&#160;</text>
<text text-anchor="start" x="139" y="-532.6" font-family="Roboto" font-weight="bold" font-size="8.00">BigAutoField</text>
<text text-anchor="start" x="191" y="-532.6" font-family="Roboto" font-size="8.00"> &#160;&#160;&#160;&#160;&#160;</text>
<text text-anchor="start" x="31" y="-519.6" font-family="Roboto" font-size="8.00"> &#160;&#160;&#160;&#160;&#160;</text>
<text text-anchor="start" x="45" y="-519.6" font-family="Roboto" font-weight="bold" font-size="8.00">user</text>
<text text-anchor="start" x="63" y="-519.6" font-family="Roboto" font-size="8.00"> &#160;&#160;&#160;&#160;&#160;</text>
<text text-anchor="start" x="125" y="-519.6" font-family="Roboto" font-size="8.00"> &#160;&#160;&#160;&#160;&#160;</text>
<text text-anchor="start" x="139" y="-519.6" font-family="Roboto" font-weight="bold" font-size="8.00">ForeignKey (id)</text>
<text text-anchor="start" x="201" y="-519.6" font-family="Roboto" font-size="8.00"> &#160;&#160;&#160;&#160;&#160;</text>
<text text-anchor="start" x="31" y="-506.6" font-family="Roboto" font-size="8.00"> &#160;&#160;&#160;&#160;&#160;</text>
<text text-anchor="start" x="45" y="-506.6" font-family="Roboto" font-size="8.00" fill="#7b7b7b">description</text>
<text text-anchor="start" x="84" y="-506.6" font-family="Roboto" font-size="8.00"> &#160;&#160;&#160;&#160;&#160;</text>
<text text-anchor="start" x="125" y="-506.6" font-family="Roboto" font-size="8.00"> &#160;&#160;&#160;&#160;&#160;</text>
<text text-anchor="start" x="139" y="-506.6" font-family="Roboto" font-size="8.00" fill="#7b7b7b">TextField</text>
<text text-anchor="start" x="172" y="-506.6" font-family="Roboto" font-size="8.00"> &#160;&#160;&#160;&#160;&#160;</text>
<text text-anchor="start" x="31" y="-493.6" font-family="Roboto" font-size="8.00"> &#160;&#160;&#160;&#160;&#160;</text>
<text text-anchor="start" x="45" y="-493.6" font-family="Roboto" font-size="8.00">duration_minutes</text>
<text text-anchor="start" x="107" y="-493.6" font-family="Roboto" font-size="8.00"> &#160;&#160;&#160;&#160;&#160;</text>
<text text-anchor="start" x="125" y="-493.6" font-family="Roboto" font-size="8.00"> &#160;&#160;&#160;&#160;&#160;</text>
<text text-anchor="start" x="139" y="-493.6" font-family="Roboto" font-size="8.00">IntegerField</text>
<text text-anchor="start" x="182" y="-493.6" font-family="Roboto" font-size="8.00"> &#160;&#160;&#160;&#160;&#160;</text>
<text text-anchor="start" x="31" y="-480.6" font-family="Roboto" font-size="8.00"> &#160;&#160;&#160;&#160;&#160;</text>
<text text-anchor="start" x="45" y="-480.6" font-family="Roboto" font-size="8.00">title</text>
<text text-anchor="start" x="58" y="-480.6" font-family="Roboto" font-size="8.00"> &#160;&#160;&#160;&#160;&#160;</text>
<text text-anchor="start" x="125" y="-480.6" font-family="Roboto" font-size="8.00"> &#160;&#160;&#160;&#160;&#160;</text>
<text text-anchor="start" x="139" y="-480.6" font-family="Roboto" font-size="8.00">CharField</text>
<text text-anchor="start" x="174" y="-480.6" font-family="Roboto" font-size="8.00"> &#160;&#160;&#160;&#160;&#160;</text>
<polygon fill="none" stroke="black" points="28,-474 28,-562 218,-562 218,-474 28,-474"/>
</g>
<!-- core_models_Workout&#45;&gt;core_models_User -->
<g id="edge5" class="edge">
<title>core_models_Workout&#45;&gt;core_models_User</title>
<path fill="none" stroke="black" d="M74.58,-463.45C42.09,-420.78 10.64,-360.93 43,-316 95.15,-243.58 194.58,-215.71 273.68,-205.3"/>
<ellipse fill="black" stroke="black" cx="77.13" cy="-466.73" rx="4" ry="4"/>
<text text-anchor="middle" x="72.5" y="-362.1" font-family="Roboto" font-size="8.00"> user (workouts)</text>
</g>
<!-- core_models_WorkoutTag -->
<g id="node5" class="node">
<title>core_models_WorkoutTag</title>
<polygon fill="white" stroke="transparent" points="119.5,-333 119.5,-395 268.5,-395 268.5,-333 119.5,-333"/>
<polygon fill="#1b563f" stroke="transparent" points="121,-373 121,-394 268,-394 268,-373 121,-373"/>
<text text-anchor="start" x="139" y="-382" font-family="Roboto" font-size="8.00"> &#160;&#160;&#160;&#160;&#160;</text>
<text text-anchor="start" x="153" y="-382" font-family="Roboto" font-weight="bold" font-size="10.00" fill="white"> &#160;&#160;&#160;&#160;&#160;WorkoutTag &#160;&#160;&#160;&#160;&#160;</text>
<text text-anchor="start" x="123" y="-365.6" font-family="Roboto" font-size="8.00"> &#160;&#160;&#160;&#160;&#160;</text>
<text text-anchor="start" x="137" y="-365.6" font-family="Roboto" font-weight="bold" font-size="8.00">id</text>
<text text-anchor="start" x="145" y="-365.6" font-family="Roboto" font-size="8.00"> &#160;&#160;&#160;&#160;&#160;</text>
<text text-anchor="start" x="176" y="-365.6" font-family="Roboto" font-size="8.00"> &#160;&#160;&#160;&#160;&#160;</text>
<text text-anchor="start" x="190" y="-365.6" font-family="Roboto" font-weight="bold" font-size="8.00">BigAutoField</text>
<text text-anchor="start" x="242" y="-365.6" font-family="Roboto" font-size="8.00"> &#160;&#160;&#160;&#160;&#160;</text>
<text text-anchor="start" x="123" y="-352.6" font-family="Roboto" font-size="8.00"> &#160;&#160;&#160;&#160;&#160;</text>
<text text-anchor="start" x="137" y="-352.6" font-family="Roboto" font-weight="bold" font-size="8.00">user</text>
<text text-anchor="start" x="155" y="-352.6" font-family="Roboto" font-size="8.00"> &#160;&#160;&#160;&#160;&#160;</text>
<text text-anchor="start" x="176" y="-352.6" font-family="Roboto" font-size="8.00"> &#160;&#160;&#160;&#160;&#160;</text>
<text text-anchor="start" x="190" y="-352.6" font-family="Roboto" font-weight="bold" font-size="8.00">ForeignKey (id)</text>
<text text-anchor="start" x="252" y="-352.6" font-family="Roboto" font-size="8.00"> &#160;&#160;&#160;&#160;&#160;</text>
<text text-anchor="start" x="123" y="-339.6" font-family="Roboto" font-size="8.00"> &#160;&#160;&#160;&#160;&#160;</text>
<text text-anchor="start" x="137" y="-339.6" font-family="Roboto" font-size="8.00">name</text>
<text text-anchor="start" x="158" y="-339.6" font-family="Roboto" font-size="8.00"> &#160;&#160;&#160;&#160;&#160;</text>
<text text-anchor="start" x="176" y="-339.6" font-family="Roboto" font-size="8.00"> &#160;&#160;&#160;&#160;&#160;</text>
<text text-anchor="start" x="190" y="-339.6" font-family="Roboto" font-size="8.00">CharField</text>
<text text-anchor="start" x="225" y="-339.6" font-family="Roboto" font-size="8.00"> &#160;&#160;&#160;&#160;&#160;</text>
<polygon fill="none" stroke="black" points="119.5,-333 119.5,-395 268.5,-395 268.5,-333 119.5,-333"/>
</g>
<!-- core_models_Workout&#45;&gt;core_models_WorkoutTag -->
<g id="edge6" class="edge">
<title>core_models_Workout&#45;&gt;core_models_WorkoutTag</title>
<path fill="none" stroke="black" d="M148.51,-462.39C157.05,-444.1 166.43,-424.01 174.45,-406.86"/>
<ellipse fill="black" stroke="black" cx="146.77" cy="-466.12" rx="4" ry="4"/>
<ellipse fill="black" stroke="black" cx="176.33" cy="-402.82" rx="4" ry="4"/>
<text text-anchor="middle" x="199.5" y="-432.6" font-family="Roboto" font-size="8.00"> wo_tags (workouts)</text>
</g>
<!-- core_models_WorkoutTag&#45;&gt;core_models_User -->
<g id="edge7" class="edge">
<title>core_models_WorkoutTag&#45;&gt;core_models_User</title>
<path fill="none" stroke="black" d="M210.73,-321.3C216.61,-309.94 224.04,-298.24 233,-289 245,-276.63 259.09,-265.47 273.81,-255.56"/>
<ellipse fill="black" stroke="black" cx="208.86" cy="-325.1" rx="4" ry="4"/>
<text text-anchor="middle" x="270.5" y="-291.6" font-family="Roboto" font-size="8.00"> user (workout_tags)</text>
</g>
<!-- core_models_WorkoutExercise -->
<g id="node6" class="node">
<title>core_models_WorkoutExercise</title>
<polygon fill="white" stroke="transparent" points="115,-628 115,-755 299,-755 299,-628 115,-628"/>
<polygon fill="#1b563f" stroke="transparent" points="116,-732.5 116,-753.5 298,-753.5 298,-732.5 116,-732.5"/>
<text text-anchor="start" x="140.5" y="-741.5" font-family="Roboto" font-size="8.00"> &#160;&#160;&#160;&#160;&#160;</text>
<text text-anchor="start" x="154.5" y="-741.5" font-family="Roboto" font-weight="bold" font-size="10.00" fill="white"> &#160;&#160;&#160;&#160;&#160;WorkoutExercise &#160;&#160;&#160;&#160;&#160;</text>
<text text-anchor="start" x="118" y="-725.1" font-family="Roboto" font-size="8.00"> &#160;&#160;&#160;&#160;&#160;</text>
<text text-anchor="start" x="132" y="-725.1" font-family="Roboto" font-weight="bold" font-size="8.00">id</text>
<text text-anchor="start" x="140" y="-725.1" font-family="Roboto" font-size="8.00"> &#160;&#160;&#160;&#160;&#160;</text>
<text text-anchor="start" x="198" y="-725.1" font-family="Roboto" font-size="8.00"> &#160;&#160;&#160;&#160;&#160;</text>
<text text-anchor="start" x="212" y="-725.1" font-family="Roboto" font-weight="bold" font-size="8.00">BigAutoField</text>
<text text-anchor="start" x="264" y="-725.1" font-family="Roboto" font-size="8.00"> &#160;&#160;&#160;&#160;&#160;</text>
<text text-anchor="start" x="118" y="-712.1" font-family="Roboto" font-size="8.00"> &#160;&#160;&#160;&#160;&#160;</text>
<text text-anchor="start" x="132" y="-712.1" font-family="Roboto" font-weight="bold" font-size="8.00">exercise</text>
<text text-anchor="start" x="165" y="-712.1" font-family="Roboto" font-size="8.00"> &#160;&#160;&#160;&#160;&#160;</text>
<text text-anchor="start" x="198" y="-712.1" font-family="Roboto" font-size="8.00"> &#160;&#160;&#160;&#160;&#160;</text>
<text text-anchor="start" x="212" y="-712.1" font-family="Roboto" font-weight="bold" font-size="8.00">ForeignKey (id)</text>
<text text-anchor="start" x="274" y="-712.1" font-family="Roboto" font-size="8.00"> &#160;&#160;&#160;&#160;&#160;</text>
<text text-anchor="start" x="118" y="-699.1" font-family="Roboto" font-size="8.00"> &#160;&#160;&#160;&#160;&#160;</text>
<text text-anchor="start" x="132" y="-699.1" font-family="Roboto" font-weight="bold" font-size="8.00">workout</text>
<text text-anchor="start" x="165" y="-699.1" font-family="Roboto" font-size="8.00"> &#160;&#160;&#160;&#160;&#160;</text>
<text text-anchor="start" x="198" y="-699.1" font-family="Roboto" font-size="8.00"> &#160;&#160;&#160;&#160;&#160;</text>
<text text-anchor="start" x="212" y="-699.1" font-family="Roboto" font-weight="bold" font-size="8.00">ForeignKey (id)</text>
<text text-anchor="start" x="274" y="-699.1" font-family="Roboto" font-size="8.00"> &#160;&#160;&#160;&#160;&#160;</text>
<text text-anchor="start" x="118" y="-686.1" font-family="Roboto" font-size="8.00"> &#160;&#160;&#160;&#160;&#160;</text>
<text text-anchor="start" x="132" y="-686.1" font-family="Roboto" font-size="8.00">order</text>
<text text-anchor="start" x="152" y="-686.1" font-family="Roboto" font-size="8.00"> &#160;&#160;&#160;&#160;&#160;</text>
<text text-anchor="start" x="198" y="-686.1" font-family="Roboto" font-size="8.00"> &#160;&#160;&#160;&#160;&#160;</text>
<text text-anchor="start" x="212" y="-686.1" font-family="Roboto" font-size="8.00">PositiveIntegerField</text>
<text text-anchor="start" x="282" y="-686.1" font-family="Roboto" font-size="8.00"> &#160;&#160;&#160;&#160;&#160;</text>
<text text-anchor="start" x="118" y="-673.1" font-family="Roboto" font-size="8.00"> &#160;&#160;&#160;&#160;&#160;</text>
<text text-anchor="start" x="132" y="-673.1" font-family="Roboto" font-size="8.00">reps</text>
<text text-anchor="start" x="148" y="-673.1" font-family="Roboto" font-size="8.00"> &#160;&#160;&#160;&#160;&#160;</text>
<text text-anchor="start" x="198" y="-673.1" font-family="Roboto" font-size="8.00"> &#160;&#160;&#160;&#160;&#160;</text>
<text text-anchor="start" x="212" y="-673.1" font-family="Roboto" font-size="8.00">PositiveIntegerField</text>
<text text-anchor="start" x="282" y="-673.1" font-family="Roboto" font-size="8.00"> &#160;&#160;&#160;&#160;&#160;</text>
<text text-anchor="start" x="118" y="-660.1" font-family="Roboto" font-size="8.00"> &#160;&#160;&#160;&#160;&#160;</text>
<text text-anchor="start" x="132" y="-660.1" font-family="Roboto" font-size="8.00">rest_seconds</text>
<text text-anchor="start" x="180" y="-660.1" font-family="Roboto" font-size="8.00"> &#160;&#160;&#160;&#160;&#160;</text>
<text text-anchor="start" x="198" y="-660.1" font-family="Roboto" font-size="8.00"> &#160;&#160;&#160;&#160;&#160;</text>
<text text-anchor="start" x="212" y="-660.1" font-family="Roboto" font-size="8.00">PositiveIntegerField</text>
<text text-anchor="start" x="282" y="-660.1" font-family="Roboto" font-size="8.00"> &#160;&#160;&#160;&#160;&#160;</text>
<text text-anchor="start" x="118" y="-647.1" font-family="Roboto" font-size="8.00"> &#160;&#160;&#160;&#160;&#160;</text>
<text text-anchor="start" x="132" y="-647.1" font-family="Roboto" font-size="8.00">sets</text>
<text text-anchor="start" x="147" y="-647.1" font-family="Roboto" font-size="8.00"> &#160;&#160;&#160;&#160;&#160;</text>
<text text-anchor="start" x="198" y="-647.1" font-family="Roboto" font-size="8.00"> &#160;&#160;&#160;&#160;&#160;</text>
<text text-anchor="start" x="212" y="-647.1" font-family="Roboto" font-size="8.00">PositiveIntegerField</text>
<text text-anchor="start" x="282" y="-647.1" font-family="Roboto" font-size="8.00"> &#160;&#160;&#160;&#160;&#160;</text>
<text text-anchor="start" x="118" y="-634.1" font-family="Roboto" font-size="8.00"> &#160;&#160;&#160;&#160;&#160;</text>
<text text-anchor="start" x="132" y="-634.1" font-family="Roboto" font-size="8.00" fill="#7b7b7b">user_notes</text>
<text text-anchor="start" x="172" y="-634.1" font-family="Roboto" font-size="8.00"> &#160;&#160;&#160;&#160;&#160;</text>
<text text-anchor="start" x="198" y="-634.1" font-family="Roboto" font-size="8.00"> &#160;&#160;&#160;&#160;&#160;</text>
<text text-anchor="start" x="212" y="-634.1" font-family="Roboto" font-size="8.00" fill="#7b7b7b">TextField</text>
<text text-anchor="start" x="245" y="-634.1" font-family="Roboto" font-size="8.00"> &#160;&#160;&#160;&#160;&#160;</text>
<polygon fill="none" stroke="black" points="115,-628 115,-755 299,-755 299,-628 115,-628"/>
</g>
<!-- core_models_WorkoutExercise&#45;&gt;core_models_Workout -->
<g id="edge8" class="edge">
<title>core_models_WorkoutExercise&#45;&gt;core_models_Workout</title>
<path fill="none" stroke="black" d="M170.73,-616.45C162.39,-599.43 153.75,-581.78 146.14,-566.25"/>
<ellipse fill="black" stroke="black" cx="172.52" cy="-620.11" rx="4" ry="4"/>
<text text-anchor="middle" x="218" y="-599.6" font-family="Roboto" font-size="8.00"> workout (workout_exercises)</text>
</g>
<!-- core_models_Exercise -->
<g id="node7" class="node">
<title>core_models_Exercise</title>
<polygon fill="white" stroke="transparent" points="252.5,-461 252.5,-575 411.5,-575 411.5,-461 252.5,-461"/>
<polygon fill="#1b563f" stroke="transparent" points="254,-553 254,-574 411,-574 411,-553 254,-553"/>
<text text-anchor="start" x="286.5" y="-562" font-family="Roboto" font-size="8.00"> &#160;&#160;&#160;&#160;&#160;</text>
<text text-anchor="start" x="300.5" y="-562" font-family="Roboto" font-weight="bold" font-size="10.00" fill="white"> &#160;&#160;&#160;&#160;&#160;Exercise &#160;&#160;&#160;&#160;&#160;</text>
<text text-anchor="start" x="256" y="-545.6" font-family="Roboto" font-size="8.00"> &#160;&#160;&#160;&#160;&#160;</text>
<text text-anchor="start" x="270" y="-545.6" font-family="Roboto" font-weight="bold" font-size="8.00">id</text>
<text text-anchor="start" x="278" y="-545.6" font-family="Roboto" font-size="8.00"> &#160;&#160;&#160;&#160;&#160;</text>
<text text-anchor="start" x="319" y="-545.6" font-family="Roboto" font-size="8.00"> &#160;&#160;&#160;&#160;&#160;</text>
<text text-anchor="start" x="333" y="-545.6" font-family="Roboto" font-weight="bold" font-size="8.00">BigAutoField</text>
<text text-anchor="start" x="385" y="-545.6" font-family="Roboto" font-size="8.00"> &#160;&#160;&#160;&#160;&#160;</text>
<text text-anchor="start" x="256" y="-532.6" font-family="Roboto" font-size="8.00"> &#160;&#160;&#160;&#160;&#160;</text>
<text text-anchor="start" x="270" y="-532.6" font-family="Roboto" font-weight="bold" font-size="8.00">user</text>
<text text-anchor="start" x="288" y="-532.6" font-family="Roboto" font-size="8.00"> &#160;&#160;&#160;&#160;&#160;</text>
<text text-anchor="start" x="319" y="-532.6" font-family="Roboto" font-size="8.00"> &#160;&#160;&#160;&#160;&#160;</text>
<text text-anchor="start" x="333" y="-532.6" font-family="Roboto" font-weight="bold" font-size="8.00">ForeignKey (id)</text>
<text text-anchor="start" x="395" y="-532.6" font-family="Roboto" font-size="8.00"> &#160;&#160;&#160;&#160;&#160;</text>
<text text-anchor="start" x="256" y="-519.6" font-family="Roboto" font-size="8.00"> &#160;&#160;&#160;&#160;&#160;</text>
<text text-anchor="start" x="270" y="-519.6" font-family="Roboto" font-size="8.00">difficulty</text>
<text text-anchor="start" x="298" y="-519.6" font-family="Roboto" font-size="8.00"> &#160;&#160;&#160;&#160;&#160;</text>
<text text-anchor="start" x="319" y="-519.6" font-family="Roboto" font-size="8.00"> &#160;&#160;&#160;&#160;&#160;</text>
<text text-anchor="start" x="333" y="-519.6" font-family="Roboto" font-size="8.00">CharField</text>
<text text-anchor="start" x="368" y="-519.6" font-family="Roboto" font-size="8.00"> &#160;&#160;&#160;&#160;&#160;</text>
<text text-anchor="start" x="256" y="-506.6" font-family="Roboto" font-size="8.00"> &#160;&#160;&#160;&#160;&#160;</text>
<text text-anchor="start" x="270" y="-506.6" font-family="Roboto" font-size="8.00" fill="#7b7b7b">image_1</text>
<text text-anchor="start" x="301" y="-506.6" font-family="Roboto" font-size="8.00"> &#160;&#160;&#160;&#160;&#160;</text>
<text text-anchor="start" x="319" y="-506.6" font-family="Roboto" font-size="8.00"> &#160;&#160;&#160;&#160;&#160;</text>
<text text-anchor="start" x="333" y="-506.6" font-family="Roboto" font-size="8.00" fill="#7b7b7b">ImageField</text>
<text text-anchor="start" x="373" y="-506.6" font-family="Roboto" font-size="8.00"> &#160;&#160;&#160;&#160;&#160;</text>
<text text-anchor="start" x="256" y="-493.6" font-family="Roboto" font-size="8.00"> &#160;&#160;&#160;&#160;&#160;</text>
<text text-anchor="start" x="270" y="-493.6" font-family="Roboto" font-size="8.00" fill="#7b7b7b">image_2</text>
<text text-anchor="start" x="301" y="-493.6" font-family="Roboto" font-size="8.00"> &#160;&#160;&#160;&#160;&#160;</text>
<text text-anchor="start" x="319" y="-493.6" font-family="Roboto" font-size="8.00"> &#160;&#160;&#160;&#160;&#160;</text>
<text text-anchor="start" x="333" y="-493.6" font-family="Roboto" font-size="8.00" fill="#7b7b7b">ImageField</text>
<text text-anchor="start" x="373" y="-493.6" font-family="Roboto" font-size="8.00"> &#160;&#160;&#160;&#160;&#160;</text>
<text text-anchor="start" x="256" y="-480.6" font-family="Roboto" font-size="8.00"> &#160;&#160;&#160;&#160;&#160;</text>
<text text-anchor="start" x="270" y="-480.6" font-family="Roboto" font-size="8.00">is_public</text>
<text text-anchor="start" x="301" y="-480.6" font-family="Roboto" font-size="8.00"> &#160;&#160;&#160;&#160;&#160;</text>
<text text-anchor="start" x="319" y="-480.6" font-family="Roboto" font-size="8.00"> &#160;&#160;&#160;&#160;&#160;</text>
<text text-anchor="start" x="333" y="-480.6" font-family="Roboto" font-size="8.00">BooleanField</text>
<text text-anchor="start" x="379" y="-480.6" font-family="Roboto" font-size="8.00"> &#160;&#160;&#160;&#160;&#160;</text>
<text text-anchor="start" x="256" y="-467.6" font-family="Roboto" font-size="8.00"> &#160;&#160;&#160;&#160;&#160;</text>
<text text-anchor="start" x="270" y="-467.6" font-family="Roboto" font-size="8.00">name</text>
<text text-anchor="start" x="291" y="-467.6" font-family="Roboto" font-size="8.00"> &#160;&#160;&#160;&#160;&#160;</text>
<text text-anchor="start" x="319" y="-467.6" font-family="Roboto" font-size="8.00"> &#160;&#160;&#160;&#160;&#160;</text>
<text text-anchor="start" x="333" y="-467.6" font-family="Roboto" font-size="8.00">CharField</text>
<text text-anchor="start" x="368" y="-467.6" font-family="Roboto" font-size="8.00"> &#160;&#160;&#160;&#160;&#160;</text>
<polygon fill="none" stroke="black" points="252.5,-461 252.5,-575 411.5,-575 411.5,-461 252.5,-461"/>
</g>
<!-- core_models_WorkoutExercise&#45;&gt;core_models_Exercise -->
<g id="edge9" class="edge">
<title>core_models_WorkoutExercise&#45;&gt;core_models_Exercise</title>
<path fill="none" stroke="black" d="M266.65,-617.25C269.51,-613.47 272.3,-609.71 275,-606 281.16,-597.53 287.45,-588.43 293.51,-579.43"/>
<ellipse fill="black" stroke="black" cx="264.22" cy="-620.44" rx="4" ry="4"/>
<text text-anchor="middle" x="332" y="-599.6" font-family="Roboto" font-size="8.00"> exercise (workout_exercises)</text>
</g>
<!-- core_models_Exercise&#45;&gt;core_models_User -->
<g id="edge10" class="edge">
<title>core_models_Exercise&#45;&gt;core_models_User</title>
<path fill="none" stroke="black" d="M318.75,-448.37C313.65,-408.99 311.48,-359 323,-316 327.09,-300.72 333.74,-285.38 341.3,-271.08"/>
<ellipse fill="black" stroke="black" cx="319.34" cy="-452.64" rx="4" ry="4"/>
<text text-anchor="middle" x="353" y="-362.1" font-family="Roboto" font-size="8.00"> user (exercises)</text>
</g>
<!-- core_models_ExerciseTag -->
<g id="node8" class="node">
<title>core_models_ExerciseTag</title>
<polygon fill="white" stroke="transparent" points="399.5,-320 399.5,-408 562.5,-408 562.5,-320 399.5,-320"/>
<polygon fill="#1b563f" stroke="transparent" points="401,-386 401,-407 562,-407 562,-386 401,-386"/>
<text text-anchor="start" x="426" y="-395" font-family="Roboto" font-size="8.00"> &#160;&#160;&#160;&#160;&#160;</text>
<text text-anchor="start" x="440" y="-395" font-family="Roboto" font-weight="bold" font-size="10.00" fill="white"> &#160;&#160;&#160;&#160;&#160;ExerciseTag &#160;&#160;&#160;&#160;&#160;</text>
<text text-anchor="start" x="403" y="-378.6" font-family="Roboto" font-size="8.00"> &#160;&#160;&#160;&#160;&#160;</text>
<text text-anchor="start" x="417" y="-378.6" font-family="Roboto" font-weight="bold" font-size="8.00">id</text>
<text text-anchor="start" x="425" y="-378.6" font-family="Roboto" font-size="8.00"> &#160;&#160;&#160;&#160;&#160;</text>
<text text-anchor="start" x="470" y="-378.6" font-family="Roboto" font-size="8.00"> &#160;&#160;&#160;&#160;&#160;</text>
<text text-anchor="start" x="484" y="-378.6" font-family="Roboto" font-weight="bold" font-size="8.00">BigAutoField</text>
<text text-anchor="start" x="536" y="-378.6" font-family="Roboto" font-size="8.00"> &#160;&#160;&#160;&#160;&#160;</text>
<text text-anchor="start" x="403" y="-365.6" font-family="Roboto" font-size="8.00"> &#160;&#160;&#160;&#160;&#160;</text>
<text text-anchor="start" x="417" y="-365.6" font-family="Roboto" font-weight="bold" font-size="8.00" fill="#7b7b7b">user</text>
<text text-anchor="start" x="435" y="-365.6" font-family="Roboto" font-size="8.00"> &#160;&#160;&#160;&#160;&#160;</text>
<text text-anchor="start" x="470" y="-365.6" font-family="Roboto" font-size="8.00"> &#160;&#160;&#160;&#160;&#160;</text>
<text text-anchor="start" x="484" y="-365.6" font-family="Roboto" font-weight="bold" font-size="8.00" fill="#7b7b7b">ForeignKey (id)</text>
<text text-anchor="start" x="546" y="-365.6" font-family="Roboto" font-size="8.00"> &#160;&#160;&#160;&#160;&#160;</text>
<text text-anchor="start" x="403" y="-352.6" font-family="Roboto" font-size="8.00"> &#160;&#160;&#160;&#160;&#160;</text>
<text text-anchor="start" x="417" y="-352.6" font-family="Roboto" font-size="8.00">is_system</text>
<text text-anchor="start" x="452" y="-352.6" font-family="Roboto" font-size="8.00"> &#160;&#160;&#160;&#160;&#160;</text>
<text text-anchor="start" x="470" y="-352.6" font-family="Roboto" font-size="8.00"> &#160;&#160;&#160;&#160;&#160;</text>
<text text-anchor="start" x="484" y="-352.6" font-family="Roboto" font-size="8.00">BooleanField</text>
<text text-anchor="start" x="530" y="-352.6" font-family="Roboto" font-size="8.00"> &#160;&#160;&#160;&#160;&#160;</text>
<text text-anchor="start" x="403" y="-339.6" font-family="Roboto" font-size="8.00"> &#160;&#160;&#160;&#160;&#160;</text>
<text text-anchor="start" x="417" y="-339.6" font-family="Roboto" font-size="8.00">name</text>
<text text-anchor="start" x="438" y="-339.6" font-family="Roboto" font-size="8.00"> &#160;&#160;&#160;&#160;&#160;</text>
<text text-anchor="start" x="470" y="-339.6" font-family="Roboto" font-size="8.00"> &#160;&#160;&#160;&#160;&#160;</text>
<text text-anchor="start" x="484" y="-339.6" font-family="Roboto" font-size="8.00">CharField</text>
<text text-anchor="start" x="519" y="-339.6" font-family="Roboto" font-size="8.00"> &#160;&#160;&#160;&#160;&#160;</text>
<text text-anchor="start" x="403" y="-326.6" font-family="Roboto" font-size="8.00"> &#160;&#160;&#160;&#160;&#160;</text>
<text text-anchor="start" x="417" y="-326.6" font-family="Roboto" font-size="8.00">type</text>
<text text-anchor="start" x="433" y="-326.6" font-family="Roboto" font-size="8.00"> &#160;&#160;&#160;&#160;&#160;</text>
<text text-anchor="start" x="470" y="-326.6" font-family="Roboto" font-size="8.00"> &#160;&#160;&#160;&#160;&#160;</text>
<text text-anchor="start" x="484" y="-326.6" font-family="Roboto" font-size="8.00">CharField</text>
<text text-anchor="start" x="519" y="-326.6" font-family="Roboto" font-size="8.00"> &#160;&#160;&#160;&#160;&#160;</text>
<polygon fill="none" stroke="black" points="399.5,-320 399.5,-408 562.5,-408 562.5,-320 399.5,-320"/>
</g>
<!-- core_models_Exercise&#45;&gt;core_models_ExerciseTag -->
<g id="edge11" class="edge">
<title>core_models_Exercise&#45;&gt;core_models_ExerciseTag</title>
<path fill="none" stroke="black" d="M396.7,-451C407.42,-440.06 418.42,-428.84 428.79,-418.26"/>
<ellipse fill="black" stroke="black" cx="393.69" cy="-454.07" rx="4" ry="4"/>
<ellipse fill="black" stroke="black" cx="431.67" cy="-415.32" rx="4" ry="4"/>
<text text-anchor="middle" x="451" y="-432.6" font-family="Roboto" font-size="8.00"> ex_tags (exercises)</text>
</g>
<!-- core_models_ExerciseTag&#45;&gt;core_models_User -->
<g id="edge12" class="edge">
<title>core_models_ExerciseTag&#45;&gt;core_models_User</title>
<path fill="none" stroke="black" d="M450.76,-308.83C444,-296.72 436.72,-283.69 429.64,-271"/>
<ellipse fill="black" stroke="black" cx="452.73" cy="-312.36" rx="4" ry="4"/>
<text text-anchor="middle" x="481" y="-291.6" font-family="Roboto" font-size="8.00"> user (exercise_tags)</text>
</g>
<!-- \n\n\n -->
<g id="node11" class="node">
<title>\n\n\n</title>
</g>
</g>
</svg>
